<?xml version="1.0" encoding="UTF-8" standalone="no"?>
<!DOCTYPE svg PUBLIC "-//W3C//DTD SVG 1.1//EN"
 "http://www.w3.org/Graphics/SVG/1.1/DTD/svg11.dtd">
<!-- Generated by graphviz version 2.28.0 (20110507.0327)
 -->
<!-- Title: name Pages: 1 -->
<svg width="1041pt" height="1028pt"
 viewBox="0.00 0.00 1041.05 1028.00" xmlns="http://www.w3.org/2000/svg" xmlns:xlink="http://www.w3.org/1999/xlink">
<g id="graph1" class="graph" transform="scale(1 1) rotate(0) translate(4 1024)">
<title>name</title>
<polygon fill="white" stroke="white" points="-4,5 -4,-1024 1038.05,-1024 1038.05,5 -4,5"/>
<!-- workflows_models_Connection -->
<g id="node1" class="node"><title>workflows_models_Connection</title>
<polygon fill="palegoldenrod" stroke="palegoldenrod" points="570.554,-974.5 570.554,-1003.5 643.554,-1003.5 643.554,-974.5 570.554,-974.5"/>
<polygon fill="#698b22" stroke="#698b22" points="571.054,-986 571.054,-1003 644.054,-1003 644.054,-986 571.054,-986"/>
<text text-anchor="start" x="584.054" y="-993.1" font-family="Helvetica Bold" font-size="8.00" fill="white">Connection</text>
<text text-anchor="start" x="573.054" y="-978.6" font-family="Helvetica Bold" font-size="8.00" fill="#7b7b7b">id</text>
<text text-anchor="start" x="602.054" y="-978.6" font-family="Helvetica Bold" font-size="8.00" fill="#7b7b7b">AutoField</text>
</g>
<!-- workflows_models_Workflow -->
<g id="node4" class="node"><title>workflows_models_Workflow</title>
<polygon fill="palegoldenrod" stroke="palegoldenrod" points="825.054,-638.5 825.054,-703.5 895.054,-703.5 895.054,-638.5 825.054,-638.5"/>
<polygon fill="#698b22" stroke="#698b22" points="825.054,-686 825.054,-703 895.054,-703 895.054,-686 825.054,-686"/>
<text text-anchor="start" x="848.054" y="-693.1" font-family="Helvetica Bold" font-size="8.00" fill="white">Workflow</text>
<text text-anchor="start" x="827.054" y="-678.6" font-family="Helvetica Bold" font-size="8.00" fill="#7b7b7b">id</text>
<text text-anchor="start" x="860.054" y="-678.6" font-family="Helvetica Bold" font-size="8.00" fill="#7b7b7b">AutoField</text>
<text text-anchor="start" x="827.054" y="-666.6" font-family="Helvetica Bold" font-size="8.00">name</text>
<text text-anchor="start" x="860.054" y="-666.6" font-family="Helvetica Bold" font-size="8.00">CharField</text>
<text text-anchor="start" x="827.054" y="-654.6" font-family="Helvetica Bold" font-size="8.00" fill="#7b7b7b">public</text>
<text text-anchor="start" x="860.054" y="-654.6" font-family="Helvetica Bold" font-size="8.00" fill="#7b7b7b">BooleanField</text>
<text text-anchor="start" x="827.054" y="-642.6" font-family="Helvetica Bold" font-size="8.00" fill="#7b7b7b">description</text>
<text text-anchor="start" x="860.054" y="-642.6" font-family="Helvetica Bold" font-size="8.00" fill="#7b7b7b">TextField</text>
</g>
<!-- workflows_models_Connection&#45;&gt;workflows_models_Workflow -->
<g id="edge6" class="edge"><title>workflows_models_Connection&#45;&gt;workflows_models_Workflow</title>
<path fill="none" stroke="black" d="M630.41,-970.283C648.942,-955.668 674.977,-933.852 695.054,-912 755.981,-845.684 764.251,-823.031 814.054,-748 822.668,-735.022 831.646,-720.454 839.359,-707.572"/>
<text text-anchor="middle" x="843.554" y="-837.1" font-family="Helvetica,sans-Serif" font-size="8.00">workflow (connections)</text>
</g>
<!-- workflows_models_Input -->
<g id="node10" class="node"><title>workflows_models_Input</title>
<polygon fill="palegoldenrod" stroke="palegoldenrod" points="153.554,-770.5 153.554,-907.5 274.554,-907.5 274.554,-770.5 153.554,-770.5"/>
<polygon fill="#698b22" stroke="#698b22" points="154.054,-890 154.054,-907 275.054,-907 275.054,-890 154.054,-890"/>
<text text-anchor="start" x="206.554" y="-897.1" font-family="Helvetica Bold" font-size="8.00" fill="white">Input</text>
<text text-anchor="start" x="156.054" y="-882.6" font-family="Helvetica Bold" font-size="8.00" fill="#7b7b7b">id</text>
<text text-anchor="start" x="212.054" y="-882.6" font-family="Helvetica Bold" font-size="8.00" fill="#7b7b7b">AutoField</text>
<text text-anchor="start" x="156.054" y="-870.6" font-family="Helvetica Bold" font-size="8.00">name</text>
<text text-anchor="start" x="212.054" y="-870.6" font-family="Helvetica Bold" font-size="8.00">CharField</text>
<text text-anchor="start" x="156.054" y="-858.6" font-family="Helvetica Bold" font-size="8.00">short_name</text>
<text text-anchor="start" x="212.054" y="-858.6" font-family="Helvetica Bold" font-size="8.00">CharField</text>
<text text-anchor="start" x="156.054" y="-846.6" font-family="Helvetica Bold" font-size="8.00" fill="#7b7b7b">description</text>
<text text-anchor="start" x="212.054" y="-846.6" font-family="Helvetica Bold" font-size="8.00" fill="#7b7b7b">TextField</text>
<text text-anchor="start" x="156.054" y="-834.6" font-family="Helvetica Bold" font-size="8.00">variable</text>
<text text-anchor="start" x="212.054" y="-834.6" font-family="Helvetica Bold" font-size="8.00">CharField</text>
<text text-anchor="start" x="156.054" y="-822.6" font-family="Helvetica Bold" font-size="8.00" fill="#7b7b7b">required</text>
<text text-anchor="start" x="212.054" y="-822.6" font-family="Helvetica Bold" font-size="8.00" fill="#7b7b7b">BooleanField</text>
<text text-anchor="start" x="156.054" y="-810.6" font-family="Helvetica Bold" font-size="8.00" fill="#7b7b7b">parameter</text>
<text text-anchor="start" x="212.054" y="-810.6" font-family="Helvetica Bold" font-size="8.00" fill="#7b7b7b">BooleanField</text>
<text text-anchor="start" x="156.054" y="-798.6" font-family="Helvetica Bold" font-size="8.00">value</text>
<text text-anchor="start" x="212.054" y="-798.6" font-family="Helvetica Bold" font-size="8.00">PickledObjectField</text>
<text text-anchor="start" x="156.054" y="-786.6" font-family="Helvetica Bold" font-size="8.00">multi_id</text>
<text text-anchor="start" x="212.054" y="-786.6" font-family="Helvetica Bold" font-size="8.00">IntegerField</text>
<text text-anchor="start" x="156.054" y="-774.6" font-family="Helvetica Bold" font-size="8.00" fill="#7b7b7b">parameter_type</text>
<text text-anchor="start" x="212.054" y="-774.6" font-family="Helvetica Bold" font-size="8.00" fill="#7b7b7b">CharField</text>
</g>
<!-- workflows_models_Connection&#45;&gt;workflows_models_Input -->
<g id="edge4" class="edge"><title>workflows_models_Connection&#45;&gt;workflows_models_Input</title>
<path fill="none" stroke="black" d="M562.736,-971.31C494.484,-945.607 363.117,-896.136 282.558,-865.798"/>
<text text-anchor="middle" x="504.054" y="-933.1" font-family="Helvetica,sans-Serif" font-size="8.00">input (connections)</text>
</g>
<!-- workflows_models_Output -->
<g id="node12" class="node"><title>workflows_models_Output</title>
<polygon fill="palegoldenrod" stroke="palegoldenrod" points="333.054,-626.5 333.054,-715.5 441.054,-715.5 441.054,-626.5 333.054,-626.5"/>
<polygon fill="#698b22" stroke="#698b22" points="333.054,-698 333.054,-715 441.054,-715 441.054,-698 333.054,-698"/>
<text text-anchor="start" x="376.054" y="-705.1" font-family="Helvetica Bold" font-size="8.00" fill="white">Output</text>
<text text-anchor="start" x="335.054" y="-690.6" font-family="Helvetica Bold" font-size="8.00" fill="#7b7b7b">id</text>
<text text-anchor="start" x="378.054" y="-690.6" font-family="Helvetica Bold" font-size="8.00" fill="#7b7b7b">AutoField</text>
<text text-anchor="start" x="335.054" y="-678.6" font-family="Helvetica Bold" font-size="8.00">name</text>
<text text-anchor="start" x="378.054" y="-678.6" font-family="Helvetica Bold" font-size="8.00">CharField</text>
<text text-anchor="start" x="335.054" y="-666.6" font-family="Helvetica Bold" font-size="8.00">short_name</text>
<text text-anchor="start" x="378.054" y="-666.6" font-family="Helvetica Bold" font-size="8.00">CharField</text>
<text text-anchor="start" x="335.054" y="-654.6" font-family="Helvetica Bold" font-size="8.00" fill="#7b7b7b">description</text>
<text text-anchor="start" x="378.054" y="-654.6" font-family="Helvetica Bold" font-size="8.00" fill="#7b7b7b">TextField</text>
<text text-anchor="start" x="335.054" y="-642.6" font-family="Helvetica Bold" font-size="8.00">variable</text>
<text text-anchor="start" x="378.054" y="-642.6" font-family="Helvetica Bold" font-size="8.00">CharField</text>
<text text-anchor="start" x="335.054" y="-630.6" font-family="Helvetica Bold" font-size="8.00">value</text>
<text text-anchor="start" x="378.054" y="-630.6" font-family="Helvetica Bold" font-size="8.00">PickledObjectField</text>
</g>
<!-- workflows_models_Connection&#45;&gt;workflows_models_Output -->
<g id="edge2" class="edge"><title>workflows_models_Connection&#45;&gt;workflows_models_Output</title>
<path fill="none" stroke="black" d="M610.019,-970.459C615.823,-930.153 624.454,-829.527 579.054,-766 548.411,-723.122 492.689,-698.89 449.137,-685.811"/>
<text text-anchor="middle" x="653.054" y="-837.1" font-family="Helvetica,sans-Serif" font-size="8.00">output (connections)</text>
</g>
<!-- workflows_models_Category -->
<g id="node2" class="node"><title>workflows_models_Category</title>
<polygon fill="palegoldenrod" stroke="palegoldenrod" points="754.554,-86.5 754.554,-127.5 825.554,-127.5 825.554,-86.5 754.554,-86.5"/>
<polygon fill="#698b22" stroke="#698b22" points="755.054,-110 755.054,-127 826.054,-127 826.054,-110 755.054,-110"/>
<text text-anchor="start" x="772.054" y="-117.1" font-family="Helvetica Bold" font-size="8.00" fill="white">Category</text>
<text text-anchor="start" x="757.054" y="-102.6" font-family="Helvetica Bold" font-size="8.00" fill="#7b7b7b">id</text>
<text text-anchor="start" x="784.054" y="-102.6" font-family="Helvetica Bold" font-size="8.00" fill="#7b7b7b">AutoField</text>
<text text-anchor="start" x="757.054" y="-90.6" font-family="Helvetica Bold" font-size="8.00">name</text>
<text text-anchor="start" x="784.054" y="-90.6" font-family="Helvetica Bold" font-size="8.00">CharField</text>
</g>
<!-- workflows_models_Category&#45;&gt;workflows_models_Category -->
<g id="edge8" class="edge"><title>workflows_models_Category&#45;&gt;workflows_models_Category</title>
<path fill="none" stroke="black" d="M833.368,-115.822C843.545,-115.097 851.054,-112.156 851.054,-107 851.054,-101.844 843.545,-98.9031 833.368,-98.178"/>
<text text-anchor="middle" x="881.554" y="-105.1" font-family="Helvetica,sans-Serif" font-size="8.00">parent (children)</text>
</g>
<!-- workflows_models_Category&#45;&gt;workflows_models_Workflow -->
<g id="edge12" class="edge"><title>workflows_models_Category&#45;&gt;workflows_models_Workflow</title>
<path fill="none" stroke="black" d="M820.206,-131.846C825.286,-137.271 829.921,-143.401 833.054,-150 917.877,-328.671 859.684,-396.245 863.054,-594 863.279,-607.203 862.87,-621.688 862.289,-634.438"/>
<text text-anchor="middle" x="915.554" y="-393.1" font-family="Helvetica,sans-Serif" font-size="8.00">workflow (categories)</text>
</g>
<!-- django_contrib_auth_models_User -->
<g id="node18" class="node"><title>django_contrib_auth_models_User</title>
<polygon fill="palegoldenrod" stroke="palegoldenrod" points="697.554,-9.5 697.554,-26.5 726.554,-26.5 726.554,-9.5 697.554,-9.5"/>
<polygon fill="#698b22" stroke="#698b22" points="698.054,-9 698.054,-26 727.054,-26 727.054,-9 698.054,-9"/>
<text text-anchor="start" x="703.054" y="-16.1" font-family="Helvetica Bold" font-size="8.00" fill="white">User</text>
</g>
<!-- workflows_models_Category&#45;&gt;django_contrib_auth_models_User -->
<g id="edge10" class="edge"><title>workflows_models_Category&#45;&gt;django_contrib_auth_models_User</title>
<path fill="none" stroke="black" d="M768.74,-82.2269C755.659,-67.6368 739.211,-49.2903 727.406,-36.1235"/>
<text text-anchor="middle" x="783.054" y="-57.1" font-family="Helvetica,sans-Serif" font-size="8.00">user (categories)</text>
</g>
<!-- workflows_models_Data -->
<g id="node3" class="node"><title>workflows_models_Data</title>
<polygon fill="palegoldenrod" stroke="palegoldenrod" points="677.554,-962.5 677.554,-1015.5 748.554,-1015.5 748.554,-962.5 677.554,-962.5"/>
<polygon fill="#698b22" stroke="#698b22" points="678.054,-998 678.054,-1015 749.054,-1015 749.054,-998 678.054,-998"/>
<text text-anchor="start" x="704.054" y="-1005.1" font-family="Helvetica Bold" font-size="8.00" fill="white">Data</text>
<text text-anchor="start" x="680.054" y="-990.6" font-family="Helvetica Bold" font-size="8.00" fill="#7b7b7b">id</text>
<text text-anchor="start" x="707.054" y="-990.6" font-family="Helvetica Bold" font-size="8.00" fill="#7b7b7b">AutoField</text>
<text text-anchor="start" x="680.054" y="-978.6" font-family="Helvetica Bold" font-size="8.00">key</text>
<text text-anchor="start" x="707.054" y="-978.6" font-family="Helvetica Bold" font-size="8.00">CharField</text>
<text text-anchor="start" x="680.054" y="-966.6" font-family="Helvetica Bold" font-size="8.00">value</text>
<text text-anchor="start" x="707.054" y="-966.6" font-family="Helvetica Bold" font-size="8.00">TextField</text>
</g>
<!-- workflows_models_Workflow&#45;&gt;workflows_models_Workflow -->
<g id="edge18" class="edge"><title>workflows_models_Workflow&#45;&gt;workflows_models_Workflow</title>
<path fill="none" stroke="black" d="M903.09,-684.262C913.408,-683.225 921.054,-678.805 921.054,-671 921.054,-663.195 913.408,-658.775 903.09,-657.738"/>
<text text-anchor="middle" x="971.054" y="-669.1" font-family="Helvetica,sans-Serif" font-size="8.00">template_parent (workflow)</text>
</g>
<!-- workflows_models_Widget -->
<g id="node9" class="node"><title>workflows_models_Widget</title>
<polygon fill="palegoldenrod" stroke="palegoldenrod" points="568.554,-428.5 568.554,-565.5 707.554,-565.5 707.554,-428.5 568.554,-428.5"/>
<polygon fill="#698b22" stroke="#698b22" points="569.054,-548 569.054,-565 708.054,-565 708.054,-548 569.054,-548"/>
<text text-anchor="start" x="624.554" y="-555.1" font-family="Helvetica Bold" font-size="8.00" fill="white">Widget</text>
<text text-anchor="start" x="571.054" y="-540.6" font-family="Helvetica Bold" font-size="8.00" fill="#7b7b7b">id</text>
<text text-anchor="start" x="653.054" y="-540.6" font-family="Helvetica Bold" font-size="8.00" fill="#7b7b7b">AutoField</text>
<text text-anchor="start" x="571.054" y="-528.6" font-family="Helvetica Bold" font-size="8.00">x</text>
<text text-anchor="start" x="653.054" y="-528.6" font-family="Helvetica Bold" font-size="8.00">IntegerField</text>
<text text-anchor="start" x="571.054" y="-516.6" font-family="Helvetica Bold" font-size="8.00">y</text>
<text text-anchor="start" x="653.054" y="-516.6" font-family="Helvetica Bold" font-size="8.00">IntegerField</text>
<text text-anchor="start" x="571.054" y="-504.6" font-family="Helvetica Bold" font-size="8.00">name</text>
<text text-anchor="start" x="653.054" y="-504.6" font-family="Helvetica Bold" font-size="8.00">CharField</text>
<text text-anchor="start" x="571.054" y="-492.6" font-family="Helvetica Bold" font-size="8.00" fill="#7b7b7b">finished</text>
<text text-anchor="start" x="653.054" y="-492.6" font-family="Helvetica Bold" font-size="8.00" fill="#7b7b7b">BooleanField</text>
<text text-anchor="start" x="571.054" y="-480.6" font-family="Helvetica Bold" font-size="8.00" fill="#7b7b7b">error</text>
<text text-anchor="start" x="653.054" y="-480.6" font-family="Helvetica Bold" font-size="8.00" fill="#7b7b7b">BooleanField</text>
<text text-anchor="start" x="571.054" y="-468.6" font-family="Helvetica Bold" font-size="8.00" fill="#7b7b7b">running</text>
<text text-anchor="start" x="653.054" y="-468.6" font-family="Helvetica Bold" font-size="8.00" fill="#7b7b7b">BooleanField</text>
<text text-anchor="start" x="571.054" y="-456.6" font-family="Helvetica Bold" font-size="8.00" fill="#7b7b7b">interaction_waiting</text>
<text text-anchor="start" x="653.054" y="-456.6" font-family="Helvetica Bold" font-size="8.00" fill="#7b7b7b">BooleanField</text>
<text text-anchor="start" x="571.054" y="-444.6" font-family="Helvetica Bold" font-size="8.00">type</text>
<text text-anchor="start" x="653.054" y="-444.6" font-family="Helvetica Bold" font-size="8.00">CharField</text>
<text text-anchor="start" x="571.054" y="-432.6" font-family="Helvetica Bold" font-size="8.00">progress</text>
<text text-anchor="start" x="653.054" y="-432.6" font-family="Helvetica Bold" font-size="8.00">IntegerField</text>
</g>
<!-- workflows_models_Workflow&#45;&gt;workflows_models_Widget -->
<g id="edge16" class="edge"><title>workflows_models_Workflow&#45;&gt;workflows_models_Widget</title>
<path fill="none" stroke="black" d="M826.261,-634.282C820.273,-629.52 813.785,-625.189 807.054,-622 758.316,-598.911 730.203,-636.351 687.054,-604 675.294,-595.183 666.264,-582.858 659.363,-569.72"/>
<text text-anchor="middle" x="727.554" y="-597.1" font-family="Helvetica,sans-Serif" font-size="8.00">widget (workflow_link)</text>
</g>
<!-- workflows_models_Workflow&#45;&gt;django_contrib_auth_models_User -->
<g id="edge14" class="edge"><title>workflows_models_Workflow&#45;&gt;django_contrib_auth_models_User</title>
<path fill="none" stroke="black" d="M900.441,-634.333C932.179,-602.196 971.054,-551.842 971.054,-498 971.054,-498 971.054,-498 971.054,-106 971.054,-57.4984 805.779,-30.9687 739.282,-22.2575"/>
<text text-anchor="middle" x="1002.05" y="-273.1" font-family="Helvetica,sans-Serif" font-size="8.00">user (workflows)</text>
</g>
<!-- workflows_models_AbstractWidget -->
<g id="node5" class="node"><title>workflows_models_AbstractWidget</title>
<polygon fill="palegoldenrod" stroke="palegoldenrod" points="620.054,-182.5 620.054,-367.5 730.054,-367.5 730.054,-182.5 620.054,-182.5"/>
<polygon fill="#698b22" stroke="#698b22" points="620.054,-350 620.054,-367 730.054,-367 730.054,-350 620.054,-350"/>
<text text-anchor="start" x="655.554" y="-357.1" font-family="Helvetica Bold" font-size="8.00" fill="white">AbstractWidget</text>
<text text-anchor="start" x="622.054" y="-342.6" font-family="Helvetica Bold" font-size="8.00" fill="#7b7b7b">id</text>
<text text-anchor="start" x="678.054" y="-342.6" font-family="Helvetica Bold" font-size="8.00" fill="#7b7b7b">AutoField</text>
<text text-anchor="start" x="622.054" y="-330.6" font-family="Helvetica Bold" font-size="8.00">name</text>
<text text-anchor="start" x="678.054" y="-330.6" font-family="Helvetica Bold" font-size="8.00">CharField</text>
<text text-anchor="start" x="622.054" y="-318.6" font-family="Helvetica Bold" font-size="8.00">action</text>
<text text-anchor="start" x="678.054" y="-318.6" font-family="Helvetica Bold" font-size="8.00">CharField</text>
<text text-anchor="start" x="622.054" y="-306.6" font-family="Helvetica Bold" font-size="8.00" fill="#7b7b7b">wsdl</text>
<text text-anchor="start" x="678.054" y="-306.6" font-family="Helvetica Bold" font-size="8.00" fill="#7b7b7b">URLField</text>
<text text-anchor="start" x="622.054" y="-294.6" font-family="Helvetica Bold" font-size="8.00" fill="#7b7b7b">wsdl_method</text>
<text text-anchor="start" x="678.054" y="-294.6" font-family="Helvetica Bold" font-size="8.00" fill="#7b7b7b">CharField</text>
<text text-anchor="start" x="622.054" y="-282.6" font-family="Helvetica Bold" font-size="8.00" fill="#7b7b7b">description</text>
<text text-anchor="start" x="678.054" y="-282.6" font-family="Helvetica Bold" font-size="8.00" fill="#7b7b7b">TextField</text>
<text text-anchor="start" x="622.054" y="-270.6" font-family="Helvetica Bold" font-size="8.00" fill="#7b7b7b">visualization_view</text>
<text text-anchor="start" x="678.054" y="-270.6" font-family="Helvetica Bold" font-size="8.00" fill="#7b7b7b">CharField</text>
<text text-anchor="start" x="622.054" y="-258.6" font-family="Helvetica Bold" font-size="8.00" fill="#7b7b7b">interactive</text>
<text text-anchor="start" x="678.054" y="-258.6" font-family="Helvetica Bold" font-size="8.00" fill="#7b7b7b">BooleanField</text>
<text text-anchor="start" x="622.054" y="-246.6" font-family="Helvetica Bold" font-size="8.00" fill="#7b7b7b">interaction_view</text>
<text text-anchor="start" x="678.054" y="-246.6" font-family="Helvetica Bold" font-size="8.00" fill="#7b7b7b">CharField</text>
<text text-anchor="start" x="622.054" y="-234.6" font-family="Helvetica Bold" font-size="8.00" fill="#7b7b7b">post_interact_action</text>
<text text-anchor="start" x="678.054" y="-234.6" font-family="Helvetica Bold" font-size="8.00" fill="#7b7b7b">CharField</text>
<text text-anchor="start" x="622.054" y="-222.6" font-family="Helvetica Bold" font-size="8.00" fill="#7b7b7b">image</text>
<text text-anchor="start" x="678.054" y="-222.6" font-family="Helvetica Bold" font-size="8.00" fill="#7b7b7b">ThumbnailField</text>
<text text-anchor="start" x="622.054" y="-210.6" font-family="Helvetica Bold" font-size="8.00" fill="#7b7b7b">treeview_image</text>
<text text-anchor="start" x="678.054" y="-210.6" font-family="Helvetica Bold" font-size="8.00" fill="#7b7b7b">ThumbnailField</text>
<text text-anchor="start" x="622.054" y="-198.6" font-family="Helvetica Bold" font-size="8.00" fill="#7b7b7b">has_progress_bar</text>
<text text-anchor="start" x="678.054" y="-198.6" font-family="Helvetica Bold" font-size="8.00" fill="#7b7b7b">BooleanField</text>
<text text-anchor="start" x="622.054" y="-186.6" font-family="Helvetica Bold" font-size="8.00">order</text>
<text text-anchor="start" x="678.054" y="-186.6" font-family="Helvetica Bold" font-size="8.00">PositiveIntegerField</text>
</g>
<!-- workflows_models_AbstractWidget&#45;&gt;workflows_models_Category -->
<g id="edge20" class="edge"><title>workflows_models_AbstractWidget&#45;&gt;workflows_models_Category</title>
<path fill="none" stroke="black" d="M738.273,-182.745C751.425,-163.759 764.175,-145.356 773.732,-131.561"/>
<text text-anchor="middle" x="794.554" y="-153.1" font-family="Helvetica,sans-Serif" font-size="8.00">category (widgets)</text>
</g>
<!-- workflows_models_AbstractWidget&#45;&gt;django_contrib_auth_models_User -->
<g id="edge22" class="edge"><title>workflows_models_AbstractWidget&#45;&gt;django_contrib_auth_models_User</title>
<path fill="none" stroke="black" d="M672.587,-178.301C673.626,-147.242 676.748,-112.848 684.054,-82 687.915,-65.6943 695.927,-48.3814 702.395,-36.0395"/>
<text text-anchor="middle" x="710.554" y="-105.1" font-family="Helvetica,sans-Serif" font-size="8.00">user (widgets)</text>
</g>
<!-- workflows_models_AbstractInput -->
<g id="node6" class="node"><title>workflows_models_AbstractInput</title>
<polygon fill="palegoldenrod" stroke="palegoldenrod" points="741.554,-422.5 741.554,-571.5 840.554,-571.5 840.554,-422.5 741.554,-422.5"/>
<polygon fill="#698b22" stroke="#698b22" points="742.054,-554 742.054,-571 841.054,-571 841.054,-554 742.054,-554"/>
<text text-anchor="start" x="774.554" y="-561.1" font-family="Helvetica Bold" font-size="8.00" fill="white">AbstractInput</text>
<text text-anchor="start" x="744.054" y="-546.6" font-family="Helvetica Bold" font-size="8.00" fill="#7b7b7b">id</text>
<text text-anchor="start" x="789.054" y="-546.6" font-family="Helvetica Bold" font-size="8.00" fill="#7b7b7b">AutoField</text>
<text text-anchor="start" x="744.054" y="-534.6" font-family="Helvetica Bold" font-size="8.00">name</text>
<text text-anchor="start" x="789.054" y="-534.6" font-family="Helvetica Bold" font-size="8.00">CharField</text>
<text text-anchor="start" x="744.054" y="-522.6" font-family="Helvetica Bold" font-size="8.00">short_name</text>
<text text-anchor="start" x="789.054" y="-522.6" font-family="Helvetica Bold" font-size="8.00">CharField</text>
<text text-anchor="start" x="744.054" y="-510.6" font-family="Helvetica Bold" font-size="8.00" fill="#7b7b7b">description</text>
<text text-anchor="start" x="789.054" y="-510.6" font-family="Helvetica Bold" font-size="8.00" fill="#7b7b7b">TextField</text>
<text text-anchor="start" x="744.054" y="-498.6" font-family="Helvetica Bold" font-size="8.00">variable</text>
<text text-anchor="start" x="789.054" y="-498.6" font-family="Helvetica Bold" font-size="8.00">CharField</text>
<text text-anchor="start" x="744.054" y="-486.6" font-family="Helvetica Bold" font-size="8.00" fill="#7b7b7b">required</text>
<text text-anchor="start" x="789.054" y="-486.6" font-family="Helvetica Bold" font-size="8.00" fill="#7b7b7b">BooleanField</text>
<text text-anchor="start" x="744.054" y="-474.6" font-family="Helvetica Bold" font-size="8.00" fill="#7b7b7b">parameter</text>
<text text-anchor="start" x="789.054" y="-474.6" font-family="Helvetica Bold" font-size="8.00" fill="#7b7b7b">BooleanField</text>
<text text-anchor="start" x="744.054" y="-462.6" font-family="Helvetica Bold" font-size="8.00" fill="#7b7b7b">multi</text>
<text text-anchor="start" x="789.054" y="-462.6" font-family="Helvetica Bold" font-size="8.00" fill="#7b7b7b">BooleanField</text>
<text text-anchor="start" x="744.054" y="-450.6" font-family="Helvetica Bold" font-size="8.00" fill="#7b7b7b">default</text>
<text text-anchor="start" x="789.054" y="-450.6" font-family="Helvetica Bold" font-size="8.00" fill="#7b7b7b">TextField</text>
<text text-anchor="start" x="744.054" y="-438.6" font-family="Helvetica Bold" font-size="8.00" fill="#7b7b7b">parameter_type</text>
<text text-anchor="start" x="789.054" y="-438.6" font-family="Helvetica Bold" font-size="8.00" fill="#7b7b7b">CharField</text>
<text text-anchor="start" x="744.054" y="-426.6" font-family="Helvetica Bold" font-size="8.00">order</text>
<text text-anchor="start" x="789.054" y="-426.6" font-family="Helvetica Bold" font-size="8.00">PositiveIntegerField</text>
</g>
<!-- workflows_models_AbstractInput&#45;&gt;workflows_models_AbstractWidget -->
<g id="edge24" class="edge"><title>workflows_models_AbstractInput&#45;&gt;workflows_models_AbstractWidget</title>
<path fill="none" stroke="black" d="M767.51,-418.23C763.748,-408.55 759.584,-398.925 755.054,-390 750.02,-380.082 744.212,-370.048 738.071,-360.259"/>
<text text-anchor="middle" x="786.054" y="-393.1" font-family="Helvetica,sans-Serif" font-size="8.00">widget (inputs)</text>
</g>
<!-- workflows_models_AbstractOption -->
<g id="node7" class="node"><title>workflows_models_AbstractOption</title>
<polygon fill="palegoldenrod" stroke="palegoldenrod" points="725.554,-644.5 725.554,-697.5 790.554,-697.5 790.554,-644.5 725.554,-644.5"/>
<polygon fill="#698b22" stroke="#698b22" points="726.054,-680 726.054,-697 791.054,-697 791.054,-680 726.054,-680"/>
<text text-anchor="start" x="734.054" y="-687.1" font-family="Helvetica Bold" font-size="8.00" fill="white">AbstractOption</text>
<text text-anchor="start" x="728.054" y="-672.6" font-family="Helvetica Bold" font-size="8.00" fill="#7b7b7b">id</text>
<text text-anchor="start" x="758.054" y="-672.6" font-family="Helvetica Bold" font-size="8.00" fill="#7b7b7b">AutoField</text>
<text text-anchor="start" x="728.054" y="-660.6" font-family="Helvetica Bold" font-size="8.00">name</text>
<text text-anchor="start" x="758.054" y="-660.6" font-family="Helvetica Bold" font-size="8.00">CharField</text>
<text text-anchor="start" x="728.054" y="-648.6" font-family="Helvetica Bold" font-size="8.00" fill="#7b7b7b">value</text>
<text text-anchor="start" x="758.054" y="-648.6" font-family="Helvetica Bold" font-size="8.00" fill="#7b7b7b">TextField</text>
</g>
<!-- workflows_models_AbstractOption&#45;&gt;workflows_models_AbstractInput -->
<g id="edge26" class="edge"><title>workflows_models_AbstractOption&#45;&gt;workflows_models_AbstractInput</title>
<path fill="none" stroke="black" d="M763.727,-640.432C767.173,-622.471 771.747,-598.63 776.165,-575.6"/>
<text text-anchor="middle" x="816.554" y="-597.1" font-family="Helvetica,sans-Serif" font-size="8.00">abstract_input (options)</text>
</g>
<!-- workflows_models_AbstractOutput -->
<g id="node8" class="node"><title>workflows_models_AbstractOutput</title>
<polygon fill="palegoldenrod" stroke="palegoldenrod" points="422.054,-452.5 422.054,-541.5 534.054,-541.5 534.054,-452.5 422.054,-452.5"/>
<polygon fill="#698b22" stroke="#698b22" points="422.054,-524 422.054,-541 534.054,-541 534.054,-524 422.054,-524"/>
<text text-anchor="start" x="453.554" y="-531.1" font-family="Helvetica Bold" font-size="8.00" fill="white">AbstractOutput</text>
<text text-anchor="start" x="424.054" y="-516.6" font-family="Helvetica Bold" font-size="8.00" fill="#7b7b7b">id</text>
<text text-anchor="start" x="467.054" y="-516.6" font-family="Helvetica Bold" font-size="8.00" fill="#7b7b7b">AutoField</text>
<text text-anchor="start" x="424.054" y="-504.6" font-family="Helvetica Bold" font-size="8.00">name</text>
<text text-anchor="start" x="467.054" y="-504.6" font-family="Helvetica Bold" font-size="8.00">CharField</text>
<text text-anchor="start" x="424.054" y="-492.6" font-family="Helvetica Bold" font-size="8.00">short_name</text>
<text text-anchor="start" x="467.054" y="-492.6" font-family="Helvetica Bold" font-size="8.00">CharField</text>
<text text-anchor="start" x="424.054" y="-480.6" font-family="Helvetica Bold" font-size="8.00" fill="#7b7b7b">description</text>
<text text-anchor="start" x="467.054" y="-480.6" font-family="Helvetica Bold" font-size="8.00" fill="#7b7b7b">TextField</text>
<text text-anchor="start" x="424.054" y="-468.6" font-family="Helvetica Bold" font-size="8.00">variable</text>
<text text-anchor="start" x="467.054" y="-468.6" font-family="Helvetica Bold" font-size="8.00">CharField</text>
<text text-anchor="start" x="424.054" y="-456.6" font-family="Helvetica Bold" font-size="8.00">order</text>
<text text-anchor="start" x="467.054" y="-456.6" font-family="Helvetica Bold" font-size="8.00">PositiveIntegerField</text>
</g>
<!-- workflows_models_AbstractOutput&#45;&gt;workflows_models_AbstractWidget -->
<g id="edge28" class="edge"><title>workflows_models_AbstractOutput&#45;&gt;workflows_models_AbstractWidget</title>
<path fill="none" stroke="black" d="M520.8,-448.263C547.393,-418.565 582.071,-379.839 611.809,-346.628"/>
<text text-anchor="middle" x="600.554" y="-393.1" font-family="Helvetica,sans-Serif" font-size="8.00">widget (outputs)</text>
</g>
<!-- workflows_models_Widget&#45;&gt;workflows_models_Workflow -->
<g id="edge30" class="edge"><title>workflows_models_Widget&#45;&gt;workflows_models_Workflow</title>
<path fill="none" stroke="black" d="M596.536,-569.617C594.362,-582.141 596.142,-594.259 605.054,-604 635.474,-637.251 765.765,-603.937 807.054,-622 814.105,-625.085 820.85,-629.491 827.023,-634.397"/>
<text text-anchor="middle" x="639.554" y="-597.1" font-family="Helvetica,sans-Serif" font-size="8.00">workflow (widgets)</text>
</g>
<!-- workflows_models_Widget&#45;&gt;workflows_models_AbstractWidget -->
<g id="edge32" class="edge"><title>workflows_models_Widget&#45;&gt;workflows_models_AbstractWidget</title>
<path fill="none" stroke="black" d="M647.693,-424.367C649.385,-412.86 651.2,-401.091 653.054,-390 654.051,-384.036 655.116,-377.904 656.22,-371.725"/>
<text text-anchor="middle" x="704.054" y="-393.1" font-family="Helvetica,sans-Serif" font-size="8.00">abstract_widget (instances)</text>
</g>
<!-- workflows_models_Input&#45;&gt;workflows_models_Widget -->
<g id="edge34" class="edge"><title>workflows_models_Input&#45;&gt;workflows_models_Widget</title>
<path fill="none" stroke="black" d="M145.614,-830.689C72.5425,-819.846 -28.1621,-794.353 8.0538,-738 144.211,-526.134 323.668,-684.267 551.054,-576 555.083,-574.081 559.063,-571.917 562.971,-569.562"/>
<text text-anchor="middle" x="203.054" y="-669.1" font-family="Helvetica,sans-Serif" font-size="8.00">widget (inputs)</text>
</g>
<!-- workflows_models_Input&#45;&gt;workflows_models_Output -->
<g id="edge36" class="edge"><title>workflows_models_Input&#45;&gt;workflows_models_Output</title>
<path fill="none" stroke="black" d="M145.573,-828.061C73.8553,-814.818 -23.0768,-787.14 18.0538,-738 56.4829,-692.088 230.296,-678.079 325.026,-673.83"/>
<text text-anchor="middle" x="72.0538" y="-741.1" font-family="Helvetica,sans-Serif" font-size="8.00">inner_output (outer_input_rel)</text>
</g>
<!-- workflows_models_Input&#45;&gt;workflows_models_Output -->
<g id="edge38" class="edge"><title>workflows_models_Input&#45;&gt;workflows_models_Output</title>
<path fill="none" stroke="black" d="M145.782,-771.692C141.085,-760.253 140.97,-748.631 149.054,-738 170.304,-710.055 261.747,-690.856 324.89,-680.648"/>
<text text-anchor="middle" x="203.054" y="-741.1" font-family="Helvetica,sans-Serif" font-size="8.00">outer_output (inner_input_rel)</text>
</g>
<!-- workflows_models_Option -->
<g id="node11" class="node"><title>workflows_models_Option</title>
<polygon fill="palegoldenrod" stroke="palegoldenrod" points="185.054,-962.5 185.054,-1015.5 243.054,-1015.5 243.054,-962.5 185.054,-962.5"/>
<polygon fill="#698b22" stroke="#698b22" points="185.054,-998 185.054,-1015 243.054,-1015 243.054,-998 185.054,-998"/>
<text text-anchor="start" x="203.054" y="-1005.1" font-family="Helvetica Bold" font-size="8.00" fill="white">Option</text>
<text text-anchor="start" x="187.054" y="-990.6" font-family="Helvetica Bold" font-size="8.00" fill="#7b7b7b">id</text>
<text text-anchor="start" x="210.054" y="-990.6" font-family="Helvetica Bold" font-size="8.00" fill="#7b7b7b">AutoField</text>
<text text-anchor="start" x="187.054" y="-978.6" font-family="Helvetica Bold" font-size="8.00">name</text>
<text text-anchor="start" x="210.054" y="-978.6" font-family="Helvetica Bold" font-size="8.00">CharField</text>
<text text-anchor="start" x="187.054" y="-966.6" font-family="Helvetica Bold" font-size="8.00" fill="#7b7b7b">value</text>
<text text-anchor="start" x="210.054" y="-966.6" font-family="Helvetica Bold" font-size="8.00" fill="#7b7b7b">TextField</text>
</g>
<!-- workflows_models_Option&#45;&gt;workflows_models_Input -->
<g id="edge40" class="edge"><title>workflows_models_Option&#45;&gt;workflows_models_Input</title>
<path fill="none" stroke="black" d="M214.054,-958.406C214.054,-944.909 214.054,-928.284 214.054,-911.805"/>
<text text-anchor="middle" x="240.054" y="-933.1" font-family="Helvetica,sans-Serif" font-size="8.00">input (options)</text>
</g>
<!-- workflows_models_Output&#45;&gt;workflows_models_Widget -->
<g id="edge42" class="edge"><title>workflows_models_Output&#45;&gt;workflows_models_Widget</title>
<path fill="none" stroke="black" d="M449.312,-638.339C480.786,-621.343 519,-599.16 551.054,-576 554.178,-573.743 557.318,-571.391 560.453,-568.971"/>
<text text-anchor="middle" x="551.554" y="-597.1" font-family="Helvetica,sans-Serif" font-size="8.00">widget (outputs)</text>
</g>
<!-- workflows_models_Output&#45;&gt;workflows_models_Input -->
<g id="edge44" class="edge"><title>workflows_models_Output&#45;&gt;workflows_models_Input</title>
<path fill="none" stroke="black" d="M324.878,-704.06C309.26,-713.743 293.215,-725.236 280.054,-738 271.318,-746.472 263.128,-756.294 255.691,-766.406"/>
<text text-anchor="middle" x="334.054" y="-741.1" font-family="Helvetica,sans-Serif" font-size="8.00">inner_input (outer_output_rel)</text>
</g>
<!-- workflows_models_Output&#45;&gt;workflows_models_Input -->
<g id="edge46" class="edge"><title>workflows_models_Output&#45;&gt;workflows_models_Input</title>
<path fill="none" stroke="black" d="M395.563,-719.574C395.244,-729.522 393.199,-739.546 388.054,-748 365.068,-785.768 320.557,-808.387 282.31,-821.502"/>
<text text-anchor="middle" x="447.054" y="-741.1" font-family="Helvetica,sans-Serif" font-size="8.00">outer_input (inner_output_rel)</text>
</g>
<!-- workflows_models_UserProfile -->
<g id="node13" class="node"><title>workflows_models_UserProfile</title>
<polygon fill="palegoldenrod" stroke="palegoldenrod" points="503.554,-824.5 503.554,-853.5 562.554,-853.5 562.554,-824.5 503.554,-824.5"/>
<polygon fill="#698b22" stroke="#698b22" points="504.054,-836 504.054,-853 563.054,-853 563.054,-836 504.054,-836"/>
<text text-anchor="start" x="515.054" y="-843.1" font-family="Helvetica Bold" font-size="8.00" fill="white">UserProfile</text>
<text text-anchor="start" x="506.054" y="-828.6" font-family="Helvetica Bold" font-size="8.00" fill="#7b7b7b">id</text>
<text text-anchor="start" x="530.054" y="-828.6" font-family="Helvetica Bold" font-size="8.00" fill="#7b7b7b">AutoField</text>
</g>
<!-- workflows_models_UserProfile&#45;&gt;workflows_models_Workflow -->
<g id="edge50" class="edge"><title>workflows_models_UserProfile&#45;&gt;workflows_models_Workflow</title>
<path fill="none" stroke="black" d="M541.091,-820.248C549.591,-803.567 564.607,-779.245 585.054,-766 627.338,-738.609 762.138,-742.823 807.054,-720 813.584,-716.682 819.919,-712.344 825.802,-707.632"/>
<text text-anchor="middle" x="766.054" y="-741.1" font-family="Helvetica,sans-Serif" font-size="8.00">active_workflow (users)</text>
</g>
<!-- workflows_models_UserProfile&#45;&gt;django_contrib_auth_models_User -->
<g id="edge48" class="edge"><title>workflows_models_UserProfile&#45;&gt;django_contrib_auth_models_User</title>
<path fill="none" stroke="black" d="M528.781,-820.476C523.733,-800.367 514.781,-766.493 505.054,-738 487.082,-685.357 490.396,-667.258 458.054,-622 439.919,-596.623 419.473,-603.657 405.054,-576 367.865,-504.668 386.054,-476.444 386.054,-396 386.054,-396 386.054,-396 386.054,-106 386.054,-44.3467 606.469,-25.2617 684.82,-20.4251"/>
<text text-anchor="middle" x="418.054" y="-393.1" font-family="Helvetica,sans-Serif" font-size="8.00">user (userprofile)</text>
</g>
</g>
</svg>
