<?xml version="1.0" encoding="UTF-8" standalone="no"?>
<!DOCTYPE svg PUBLIC "-//W3C//DTD SVG 1.1//EN"
 "http://www.w3.org/Graphics/SVG/1.1/DTD/svg11.dtd">
<!-- Generated by graphviz version 2.28.0 (20110507.0327)
 -->
<!-- Title: name Pages: 1 -->
<svg width="1073pt" height="1028pt"
 viewBox="0.00 0.00 1073.20 1028.00" xmlns="http://www.w3.org/2000/svg" xmlns:xlink="http://www.w3.org/1999/xlink">
<g id="graph1" class="graph" transform="scale(1 1) rotate(0) translate(4 1024)">
<title>name</title>
<polygon fill="white" stroke="white" points="-4,5 -4,-1024 1070.2,-1024 1070.2,5 -4,5"/>
<!-- workflows_models_Connection -->
<g id="node1" class="node"><title>workflows_models_Connection</title>
<polygon fill="palegoldenrod" stroke="palegoldenrod" points="584.201,-974.5 584.201,-1003.5 642.201,-1003.5 642.201,-974.5 584.201,-974.5"/>
<polygon fill="#698b22" stroke="#698b22" points="584.201,-986 584.201,-1003 642.201,-1003 642.201,-986 584.201,-986"/>
<text text-anchor="start" x="595.201" y="-993.1" font-family="Helvetica Bold" font-size="8.00" fill="white">Connection</text>
<text text-anchor="start" x="586.201" y="-978.6" font-family="Helvetica Bold" font-size="8.00" fill="#7b7b7b">id</text>
<text text-anchor="start" x="609.201" y="-978.6" font-family="Helvetica Bold" font-size="8.00" fill="#7b7b7b">AutoField</text>
</g>
<!-- workflows_models_Workflow -->
<g id="node3" class="node"><title>workflows_models_Workflow</title>
<polygon fill="palegoldenrod" stroke="palegoldenrod" points="831.201,-638.5 831.201,-703.5 939.201,-703.5 939.201,-638.5 831.201,-638.5"/>
<polygon fill="#698b22" stroke="#698b22" points="831.201,-686 831.201,-703 939.201,-703 939.201,-686 831.201,-686"/>
<text text-anchor="start" x="866.201" y="-693.1" font-family="Helvetica Bold" font-size="8.00" fill="white">Workflow</text>
<text text-anchor="start" x="833.201" y="-678.6" font-family="Helvetica Bold" font-size="8.00" fill="#7b7b7b">id</text>
<text text-anchor="start" x="884.201" y="-678.6" font-family="Helvetica Bold" font-size="8.00" fill="#7b7b7b">AutoField</text>
<text text-anchor="start" x="833.201" y="-666.6" font-family="Helvetica Bold" font-size="8.00">name</text>
<text text-anchor="start" x="884.201" y="-666.6" font-family="Helvetica Bold" font-size="8.00">CharField</text>
<text text-anchor="start" x="833.201" y="-654.6" font-family="Helvetica Bold" font-size="8.00" fill="#7b7b7b">public</text>
<text text-anchor="start" x="884.201" y="-654.6" font-family="Helvetica Bold" font-size="8.00" fill="#7b7b7b">BooleanField</text>
<text text-anchor="start" x="833.201" y="-642.6" font-family="Helvetica Bold" font-size="8.00" fill="#7b7b7b">description</text>
<text text-anchor="start" x="884.201" y="-642.6" font-family="Helvetica Bold" font-size="8.00" fill="#7b7b7b">TextField</text>
</g>
<!-- workflows_models_Connection&#45;&gt;workflows_models_Workflow -->
<g id="edge6" class="edge"><title>workflows_models_Connection&#45;&gt;workflows_models_Workflow</title>
<path fill="none" stroke="black" d="M636.026,-970.437C654.491,-955.738 680.7,-933.732 701.201,-912 764.79,-844.593 828.159,-756.051 861.385,-707.559"/>
<text text-anchor="middle" x="861.701" y="-837.1" font-family="Helvetica,sans-Serif" font-size="8.00">workflow (connections)</text>
</g>
<!-- workflows_models_Input -->
<g id="node9" class="node"><title>workflows_models_Input</title>
<polygon fill="palegoldenrod" stroke="palegoldenrod" points="153.701,-770.5 153.701,-907.5 274.701,-907.5 274.701,-770.5 153.701,-770.5"/>
<polygon fill="#698b22" stroke="#698b22" points="154.201,-890 154.201,-907 275.201,-907 275.201,-890 154.201,-890"/>
<text text-anchor="start" x="206.701" y="-897.1" font-family="Helvetica Bold" font-size="8.00" fill="white">Input</text>
<text text-anchor="start" x="156.201" y="-882.6" font-family="Helvetica Bold" font-size="8.00" fill="#7b7b7b">id</text>
<text text-anchor="start" x="212.201" y="-882.6" font-family="Helvetica Bold" font-size="8.00" fill="#7b7b7b">AutoField</text>
<text text-anchor="start" x="156.201" y="-870.6" font-family="Helvetica Bold" font-size="8.00">name</text>
<text text-anchor="start" x="212.201" y="-870.6" font-family="Helvetica Bold" font-size="8.00">CharField</text>
<text text-anchor="start" x="156.201" y="-858.6" font-family="Helvetica Bold" font-size="8.00">short_name</text>
<text text-anchor="start" x="212.201" y="-858.6" font-family="Helvetica Bold" font-size="8.00">CharField</text>
<text text-anchor="start" x="156.201" y="-846.6" font-family="Helvetica Bold" font-size="8.00" fill="#7b7b7b">description</text>
<text text-anchor="start" x="212.201" y="-846.6" font-family="Helvetica Bold" font-size="8.00" fill="#7b7b7b">TextField</text>
<text text-anchor="start" x="156.201" y="-834.6" font-family="Helvetica Bold" font-size="8.00">variable</text>
<text text-anchor="start" x="212.201" y="-834.6" font-family="Helvetica Bold" font-size="8.00">CharField</text>
<text text-anchor="start" x="156.201" y="-822.6" font-family="Helvetica Bold" font-size="8.00" fill="#7b7b7b">required</text>
<text text-anchor="start" x="212.201" y="-822.6" font-family="Helvetica Bold" font-size="8.00" fill="#7b7b7b">BooleanField</text>
<text text-anchor="start" x="156.201" y="-810.6" font-family="Helvetica Bold" font-size="8.00" fill="#7b7b7b">parameter</text>
<text text-anchor="start" x="212.201" y="-810.6" font-family="Helvetica Bold" font-size="8.00" fill="#7b7b7b">BooleanField</text>
<text text-anchor="start" x="156.201" y="-798.6" font-family="Helvetica Bold" font-size="8.00">value</text>
<text text-anchor="start" x="212.201" y="-798.6" font-family="Helvetica Bold" font-size="8.00">PickledObjectField</text>
<text text-anchor="start" x="156.201" y="-786.6" font-family="Helvetica Bold" font-size="8.00">multi_id</text>
<text text-anchor="start" x="212.201" y="-786.6" font-family="Helvetica Bold" font-size="8.00">IntegerField</text>
<text text-anchor="start" x="156.201" y="-774.6" font-family="Helvetica Bold" font-size="8.00" fill="#7b7b7b">parameter_type</text>
<text text-anchor="start" x="212.201" y="-774.6" font-family="Helvetica Bold" font-size="8.00" fill="#7b7b7b">CharField</text>
</g>
<!-- workflows_models_Connection&#45;&gt;workflows_models_Input -->
<g id="edge4" class="edge"><title>workflows_models_Connection&#45;&gt;workflows_models_Input</title>
<path fill="none" stroke="black" d="M576.022,-974.209C509.085,-949.381 367.381,-896.819 282.531,-865.345"/>
<text text-anchor="middle" x="508.201" y="-933.1" font-family="Helvetica,sans-Serif" font-size="8.00">input (connections)</text>
</g>
<!-- workflows_models_Output -->
<g id="node11" class="node"><title>workflows_models_Output</title>
<polygon fill="palegoldenrod" stroke="palegoldenrod" points="342.201,-626.5 342.201,-715.5 428.201,-715.5 428.201,-626.5 342.201,-626.5"/>
<polygon fill="#698b22" stroke="#698b22" points="342.201,-698 342.201,-715 428.201,-715 428.201,-698 342.201,-698"/>
<text text-anchor="start" x="377.201" y="-705.1" font-family="Helvetica Bold" font-size="8.00" fill="white">Output</text>
<text text-anchor="start" x="344.201" y="-690.6" font-family="Helvetica Bold" font-size="8.00" fill="#7b7b7b">id</text>
<text text-anchor="start" x="379.201" y="-690.6" font-family="Helvetica Bold" font-size="8.00" fill="#7b7b7b">AutoField</text>
<text text-anchor="start" x="344.201" y="-678.6" font-family="Helvetica Bold" font-size="8.00">name</text>
<text text-anchor="start" x="379.201" y="-678.6" font-family="Helvetica Bold" font-size="8.00">CharField</text>
<text text-anchor="start" x="344.201" y="-666.6" font-family="Helvetica Bold" font-size="8.00">short_name</text>
<text text-anchor="start" x="379.201" y="-666.6" font-family="Helvetica Bold" font-size="8.00">CharField</text>
<text text-anchor="start" x="344.201" y="-654.6" font-family="Helvetica Bold" font-size="8.00" fill="#7b7b7b">description</text>
<text text-anchor="start" x="379.201" y="-654.6" font-family="Helvetica Bold" font-size="8.00" fill="#7b7b7b">TextField</text>
<text text-anchor="start" x="344.201" y="-642.6" font-family="Helvetica Bold" font-size="8.00">variable</text>
<text text-anchor="start" x="379.201" y="-642.6" font-family="Helvetica Bold" font-size="8.00">CharField</text>
<text text-anchor="start" x="344.201" y="-630.6" font-family="Helvetica Bold" font-size="8.00">value</text>
<text text-anchor="start" x="379.201" y="-630.6" font-family="Helvetica Bold" font-size="8.00">PickledObjectField</text>
</g>
<!-- workflows_models_Connection&#45;&gt;workflows_models_Output -->
<g id="edge2" class="edge"><title>workflows_models_Connection&#45;&gt;workflows_models_Output</title>
<path fill="none" stroke="black" d="M616.235,-970.408C622.186,-929.997 631.105,-829.164 585.201,-766 549.902,-717.429 483.017,-693.114 436.357,-681.55"/>
<text text-anchor="middle" x="659.201" y="-837.1" font-family="Helvetica,sans-Serif" font-size="8.00">output (connections)</text>
</g>
<!-- workflows_models_Category -->
<g id="node2" class="node"><title>workflows_models_Category</title>
<polygon fill="palegoldenrod" stroke="palegoldenrod" points="776.201,-86.5 776.201,-127.5 824.201,-127.5 824.201,-86.5 776.201,-86.5"/>
<polygon fill="#698b22" stroke="#698b22" points="776.201,-110 776.201,-127 824.201,-127 824.201,-110 776.201,-110"/>
<text text-anchor="start" x="788.701" y="-117.1" font-family="Helvetica Bold" font-size="8.00" fill="white">Category</text>
<text text-anchor="start" x="778.201" y="-102.6" font-family="Helvetica Bold" font-size="8.00" fill="#7b7b7b">id</text>
<text text-anchor="start" x="797.201" y="-102.6" font-family="Helvetica Bold" font-size="8.00" fill="#7b7b7b">AutoField</text>
<text text-anchor="start" x="778.201" y="-90.6" font-family="Helvetica Bold" font-size="8.00">name</text>
<text text-anchor="start" x="797.201" y="-90.6" font-family="Helvetica Bold" font-size="8.00">CharField</text>
</g>
<!-- workflows_models_Category&#45;&gt;workflows_models_Category -->
<g id="edge8" class="edge"><title>workflows_models_Category&#45;&gt;workflows_models_Category</title>
<path fill="none" stroke="black" d="M832.421,-115.991C842.38,-115.81 850.201,-112.813 850.201,-107 850.201,-101.188 842.38,-98.1904 832.421,-98.0088"/>
<text text-anchor="middle" x="880.701" y="-105.1" font-family="Helvetica,sans-Serif" font-size="8.00">parent (children)</text>
</g>
<!-- workflows_models_Category&#45;&gt;workflows_models_Workflow -->
<g id="edge12" class="edge"><title>workflows_models_Category&#45;&gt;workflows_models_Workflow</title>
<path fill="none" stroke="black" d="M832.127,-131.716C837.59,-137.151 842.642,-143.319 846.201,-150 935.613,-317.835 887.212,-385.837 886.201,-576 886.098,-595.258 885.878,-616.734 885.67,-634.292"/>
<text text-anchor="middle" x="937.701" y="-393.1" font-family="Helvetica,sans-Serif" font-size="8.00">workflow (categories)</text>
</g>
<!-- django_contrib_auth_models_User -->
<g id="node17" class="node"><title>django_contrib_auth_models_User</title>
<polygon fill="palegoldenrod" stroke="palegoldenrod" points="716.701,-9.5 716.701,-26.5 745.701,-26.5 745.701,-9.5 716.701,-9.5"/>
<polygon fill="#698b22" stroke="#698b22" points="717.201,-9 717.201,-26 746.201,-26 746.201,-9 717.201,-9"/>
<text text-anchor="start" x="722.201" y="-16.1" font-family="Helvetica Bold" font-size="8.00" fill="white">User</text>
</g>
<!-- workflows_models_Category&#45;&gt;django_contrib_auth_models_User -->
<g id="edge10" class="edge"><title>workflows_models_Category&#45;&gt;django_contrib_auth_models_User</title>
<path fill="none" stroke="black" d="M781.346,-82.2269C769.775,-67.6368 755.224,-49.2903 744.782,-36.1235"/>
<text text-anchor="middle" x="798.201" y="-57.1" font-family="Helvetica,sans-Serif" font-size="8.00">user (categories)</text>
</g>
<!-- workflows_models_Workflow&#45;&gt;workflows_models_Workflow -->
<g id="edge18" class="edge"><title>workflows_models_Workflow&#45;&gt;workflows_models_Workflow</title>
<path fill="none" stroke="black" d="M947.256,-683.603C957.856,-681.881 965.201,-677.68 965.201,-671 965.201,-664.32 957.856,-660.119 947.256,-658.397"/>
<text text-anchor="middle" x="1015.2" y="-669.1" font-family="Helvetica,sans-Serif" font-size="8.00">template_parent (workflow)</text>
</g>
<!-- workflows_models_Widget -->
<g id="node8" class="node"><title>workflows_models_Widget</title>
<polygon fill="palegoldenrod" stroke="palegoldenrod" points="545.701,-428.5 545.701,-565.5 684.701,-565.5 684.701,-428.5 545.701,-428.5"/>
<polygon fill="#698b22" stroke="#698b22" points="546.201,-548 546.201,-565 685.201,-565 685.201,-548 546.201,-548"/>
<text text-anchor="start" x="601.701" y="-555.1" font-family="Helvetica Bold" font-size="8.00" fill="white">Widget</text>
<text text-anchor="start" x="548.201" y="-540.6" font-family="Helvetica Bold" font-size="8.00" fill="#7b7b7b">id</text>
<text text-anchor="start" x="630.201" y="-540.6" font-family="Helvetica Bold" font-size="8.00" fill="#7b7b7b">AutoField</text>
<text text-anchor="start" x="548.201" y="-528.6" font-family="Helvetica Bold" font-size="8.00">x</text>
<text text-anchor="start" x="630.201" y="-528.6" font-family="Helvetica Bold" font-size="8.00">IntegerField</text>
<text text-anchor="start" x="548.201" y="-516.6" font-family="Helvetica Bold" font-size="8.00">y</text>
<text text-anchor="start" x="630.201" y="-516.6" font-family="Helvetica Bold" font-size="8.00">IntegerField</text>
<text text-anchor="start" x="548.201" y="-504.6" font-family="Helvetica Bold" font-size="8.00">name</text>
<text text-anchor="start" x="630.201" y="-504.6" font-family="Helvetica Bold" font-size="8.00">CharField</text>
<text text-anchor="start" x="548.201" y="-492.6" font-family="Helvetica Bold" font-size="8.00" fill="#7b7b7b">finished</text>
<text text-anchor="start" x="630.201" y="-492.6" font-family="Helvetica Bold" font-size="8.00" fill="#7b7b7b">BooleanField</text>
<text text-anchor="start" x="548.201" y="-480.6" font-family="Helvetica Bold" font-size="8.00" fill="#7b7b7b">error</text>
<text text-anchor="start" x="630.201" y="-480.6" font-family="Helvetica Bold" font-size="8.00" fill="#7b7b7b">BooleanField</text>
<text text-anchor="start" x="548.201" y="-468.6" font-family="Helvetica Bold" font-size="8.00" fill="#7b7b7b">running</text>
<text text-anchor="start" x="630.201" y="-468.6" font-family="Helvetica Bold" font-size="8.00" fill="#7b7b7b">BooleanField</text>
<text text-anchor="start" x="548.201" y="-456.6" font-family="Helvetica Bold" font-size="8.00" fill="#7b7b7b">interaction_waiting</text>
<text text-anchor="start" x="630.201" y="-456.6" font-family="Helvetica Bold" font-size="8.00" fill="#7b7b7b">BooleanField</text>
<text text-anchor="start" x="548.201" y="-444.6" font-family="Helvetica Bold" font-size="8.00">type</text>
<text text-anchor="start" x="630.201" y="-444.6" font-family="Helvetica Bold" font-size="8.00">CharField</text>
<text text-anchor="start" x="548.201" y="-432.6" font-family="Helvetica Bold" font-size="8.00">progress</text>
<text text-anchor="start" x="630.201" y="-432.6" font-family="Helvetica Bold" font-size="8.00">IntegerField</text>
</g>
<!-- workflows_models_Workflow&#45;&gt;workflows_models_Widget -->
<g id="edge16" class="edge"><title>workflows_models_Workflow&#45;&gt;workflows_models_Widget</title>
<path fill="none" stroke="black" d="M838.003,-634.374C830.035,-629.6 821.612,-625.241 813.201,-622 762.468,-602.449 738.69,-632.192 692.201,-604 677.906,-595.331 665.472,-582.903 655.009,-569.587"/>
<text text-anchor="middle" x="732.701" y="-597.1" font-family="Helvetica,sans-Serif" font-size="8.00">widget (workflow_link)</text>
</g>
<!-- workflows_models_Workflow&#45;&gt;django_contrib_auth_models_User -->
<g id="edge14" class="edge"><title>workflows_models_Workflow&#45;&gt;django_contrib_auth_models_User</title>
<path fill="none" stroke="black" d="M927.003,-634.231C959.539,-602.216 999.201,-552.095 999.201,-498 999.201,-498 999.201,-498 999.201,-106 999.201,-55.7368 826.506,-30.1083 758.373,-21.953"/>
<text text-anchor="middle" x="1030.2" y="-273.1" font-family="Helvetica,sans-Serif" font-size="8.00">user (workflows)</text>
</g>
<!-- workflows_models_AbstractWidget -->
<g id="node4" class="node"><title>workflows_models_AbstractWidget</title>
<polygon fill="palegoldenrod" stroke="palegoldenrod" points="627.201,-182.5 627.201,-367.5 767.201,-367.5 767.201,-182.5 627.201,-182.5"/>
<polygon fill="#698b22" stroke="#698b22" points="627.201,-350 627.201,-367 767.201,-367 767.201,-350 627.201,-350"/>
<text text-anchor="start" x="672.701" y="-357.1" font-family="Helvetica Bold" font-size="8.00" fill="white">AbstractWidget</text>
<text text-anchor="start" x="629.201" y="-342.6" font-family="Helvetica Bold" font-size="8.00" fill="#7b7b7b">id</text>
<text text-anchor="start" x="700.201" y="-342.6" font-family="Helvetica Bold" font-size="8.00" fill="#7b7b7b">AutoField</text>
<text text-anchor="start" x="629.201" y="-330.6" font-family="Helvetica Bold" font-size="8.00">name</text>
<text text-anchor="start" x="700.201" y="-330.6" font-family="Helvetica Bold" font-size="8.00">CharField</text>
<text text-anchor="start" x="629.201" y="-318.6" font-family="Helvetica Bold" font-size="8.00">action</text>
<text text-anchor="start" x="700.201" y="-318.6" font-family="Helvetica Bold" font-size="8.00">CharField</text>
<text text-anchor="start" x="629.201" y="-306.6" font-family="Helvetica Bold" font-size="8.00" fill="#7b7b7b">wsdl</text>
<text text-anchor="start" x="700.201" y="-306.6" font-family="Helvetica Bold" font-size="8.00" fill="#7b7b7b">URLField</text>
<text text-anchor="start" x="629.201" y="-294.6" font-family="Helvetica Bold" font-size="8.00" fill="#7b7b7b">wsdl_method</text>
<text text-anchor="start" x="700.201" y="-294.6" font-family="Helvetica Bold" font-size="8.00" fill="#7b7b7b">CharField</text>
<text text-anchor="start" x="629.201" y="-282.6" font-family="Helvetica Bold" font-size="8.00" fill="#7b7b7b">description</text>
<text text-anchor="start" x="700.201" y="-282.6" font-family="Helvetica Bold" font-size="8.00" fill="#7b7b7b">TextField</text>
<text text-anchor="start" x="629.201" y="-270.6" font-family="Helvetica Bold" font-size="8.00" fill="#7b7b7b">visualization_view</text>
<text text-anchor="start" x="700.201" y="-270.6" font-family="Helvetica Bold" font-size="8.00" fill="#7b7b7b">CharField</text>
<text text-anchor="start" x="629.201" y="-258.6" font-family="Helvetica Bold" font-size="8.00" fill="#7b7b7b">interactive</text>
<text text-anchor="start" x="700.201" y="-258.6" font-family="Helvetica Bold" font-size="8.00" fill="#7b7b7b">BooleanField</text>
<text text-anchor="start" x="629.201" y="-246.6" font-family="Helvetica Bold" font-size="8.00" fill="#7b7b7b">interaction_view</text>
<text text-anchor="start" x="700.201" y="-246.6" font-family="Helvetica Bold" font-size="8.00" fill="#7b7b7b">CharField</text>
<text text-anchor="start" x="629.201" y="-234.6" font-family="Helvetica Bold" font-size="8.00" fill="#7b7b7b">post_interact_action</text>
<text text-anchor="start" x="700.201" y="-234.6" font-family="Helvetica Bold" font-size="8.00" fill="#7b7b7b">CharField</text>
<text text-anchor="start" x="629.201" y="-222.6" font-family="Helvetica Bold" font-size="8.00" fill="#7b7b7b">image</text>
<text text-anchor="start" x="700.201" y="-222.6" font-family="Helvetica Bold" font-size="8.00" fill="#7b7b7b">ThumbnailField</text>
<text text-anchor="start" x="629.201" y="-210.6" font-family="Helvetica Bold" font-size="8.00" fill="#7b7b7b">treeview_image</text>
<text text-anchor="start" x="700.201" y="-210.6" font-family="Helvetica Bold" font-size="8.00" fill="#7b7b7b">ThumbnailField</text>
<text text-anchor="start" x="629.201" y="-198.6" font-family="Helvetica Bold" font-size="8.00" fill="#7b7b7b">has_progress_bar</text>
<text text-anchor="start" x="700.201" y="-198.6" font-family="Helvetica Bold" font-size="8.00" fill="#7b7b7b">BooleanField</text>
<text text-anchor="start" x="629.201" y="-186.6" font-family="Helvetica Bold" font-size="8.00">order</text>
<text text-anchor="start" x="700.201" y="-186.6" font-family="Helvetica Bold" font-size="8.00">PositiveIntegerField</text>
</g>
<!-- workflows_models_AbstractWidget&#45;&gt;workflows_models_Category -->
<g id="edge20" class="edge"><title>workflows_models_AbstractWidget&#45;&gt;workflows_models_Category</title>
<path fill="none" stroke="black" d="M756.52,-178.399C767.342,-160.958 777.692,-144.276 785.599,-131.533"/>
<text text-anchor="middle" x="807.701" y="-153.1" font-family="Helvetica,sans-Serif" font-size="8.00">category (widgets)</text>
</g>
<!-- workflows_models_AbstractWidget&#45;&gt;django_contrib_auth_models_User -->
<g id="edge22" class="edge"><title>workflows_models_AbstractWidget&#45;&gt;django_contrib_auth_models_User</title>
<path fill="none" stroke="black" d="M695.476,-178.469C696.559,-147.42 699.521,-112.99 706.201,-82 709.672,-65.8958 716.824,-48.564 722.592,-36.1636"/>
<text text-anchor="middle" x="732.701" y="-105.1" font-family="Helvetica,sans-Serif" font-size="8.00">user (widgets)</text>
</g>
<!-- workflows_models_AbstractInput -->
<g id="node5" class="node"><title>workflows_models_AbstractInput</title>
<polygon fill="palegoldenrod" stroke="palegoldenrod" points="719.201,-422.5 719.201,-571.5 869.201,-571.5 869.201,-422.5 719.201,-422.5"/>
<polygon fill="#698b22" stroke="#698b22" points="719.201,-554 719.201,-571 869.201,-571 869.201,-554 719.201,-554"/>
<text text-anchor="start" x="766.701" y="-561.1" font-family="Helvetica Bold" font-size="8.00" fill="white">AbstractInput</text>
<text text-anchor="start" x="721.201" y="-546.6" font-family="Helvetica Bold" font-size="8.00" fill="#7b7b7b">id</text>
<text text-anchor="start" x="788.201" y="-546.6" font-family="Helvetica Bold" font-size="8.00" fill="#7b7b7b">AutoField</text>
<text text-anchor="start" x="721.201" y="-534.6" font-family="Helvetica Bold" font-size="8.00">name</text>
<text text-anchor="start" x="788.201" y="-534.6" font-family="Helvetica Bold" font-size="8.00">CharField</text>
<text text-anchor="start" x="721.201" y="-522.6" font-family="Helvetica Bold" font-size="8.00">short_name</text>
<text text-anchor="start" x="788.201" y="-522.6" font-family="Helvetica Bold" font-size="8.00">CharField</text>
<text text-anchor="start" x="721.201" y="-510.6" font-family="Helvetica Bold" font-size="8.00" fill="#7b7b7b">description</text>
<text text-anchor="start" x="788.201" y="-510.6" font-family="Helvetica Bold" font-size="8.00" fill="#7b7b7b">TextField</text>
<text text-anchor="start" x="721.201" y="-498.6" font-family="Helvetica Bold" font-size="8.00">variable</text>
<text text-anchor="start" x="788.201" y="-498.6" font-family="Helvetica Bold" font-size="8.00">CharField</text>
<text text-anchor="start" x="721.201" y="-486.6" font-family="Helvetica Bold" font-size="8.00" fill="#7b7b7b">required</text>
<text text-anchor="start" x="788.201" y="-486.6" font-family="Helvetica Bold" font-size="8.00" fill="#7b7b7b">BooleanField</text>
<text text-anchor="start" x="721.201" y="-474.6" font-family="Helvetica Bold" font-size="8.00" fill="#7b7b7b">parameter</text>
<text text-anchor="start" x="788.201" y="-474.6" font-family="Helvetica Bold" font-size="8.00" fill="#7b7b7b">BooleanField</text>
<text text-anchor="start" x="721.201" y="-462.6" font-family="Helvetica Bold" font-size="8.00" fill="#7b7b7b">multi</text>
<text text-anchor="start" x="788.201" y="-462.6" font-family="Helvetica Bold" font-size="8.00" fill="#7b7b7b">BooleanField</text>
<text text-anchor="start" x="721.201" y="-450.6" font-family="Helvetica Bold" font-size="8.00" fill="#7b7b7b">default</text>
<text text-anchor="start" x="788.201" y="-450.6" font-family="Helvetica Bold" font-size="8.00" fill="#7b7b7b">TextField</text>
<text text-anchor="start" x="721.201" y="-438.6" font-family="Helvetica Bold" font-size="8.00" fill="#7b7b7b">parameter_type</text>
<text text-anchor="start" x="788.201" y="-438.6" font-family="Helvetica Bold" font-size="8.00" fill="#7b7b7b">CharField</text>
<text text-anchor="start" x="721.201" y="-426.6" font-family="Helvetica Bold" font-size="8.00">order</text>
<text text-anchor="start" x="788.201" y="-426.6" font-family="Helvetica Bold" font-size="8.00">PositiveIntegerField</text>
</g>
<!-- workflows_models_AbstractInput&#45;&gt;workflows_models_AbstractWidget -->
<g id="edge24" class="edge"><title>workflows_models_AbstractInput&#45;&gt;workflows_models_AbstractWidget</title>
<path fill="none" stroke="black" d="M760.002,-418.436C753.348,-403.344 746.299,-387.356 739.421,-371.758"/>
<text text-anchor="middle" x="779.201" y="-393.1" font-family="Helvetica,sans-Serif" font-size="8.00">widget (inputs)</text>
</g>
<!-- workflows_models_AbstractOption -->
<g id="node6" class="node"><title>workflows_models_AbstractOption</title>
<polygon fill="palegoldenrod" stroke="palegoldenrod" points="731.701,-644.5 731.701,-697.5 796.701,-697.5 796.701,-644.5 731.701,-644.5"/>
<polygon fill="#698b22" stroke="#698b22" points="732.201,-680 732.201,-697 797.201,-697 797.201,-680 732.201,-680"/>
<text text-anchor="start" x="740.201" y="-687.1" font-family="Helvetica Bold" font-size="8.00" fill="white">AbstractOption</text>
<text text-anchor="start" x="734.201" y="-672.6" font-family="Helvetica Bold" font-size="8.00" fill="#7b7b7b">id</text>
<text text-anchor="start" x="764.201" y="-672.6" font-family="Helvetica Bold" font-size="8.00" fill="#7b7b7b">AutoField</text>
<text text-anchor="start" x="734.201" y="-660.6" font-family="Helvetica Bold" font-size="8.00">name</text>
<text text-anchor="start" x="764.201" y="-660.6" font-family="Helvetica Bold" font-size="8.00">CharField</text>
<text text-anchor="start" x="734.201" y="-648.6" font-family="Helvetica Bold" font-size="8.00" fill="#7b7b7b">value</text>
<text text-anchor="start" x="764.201" y="-648.6" font-family="Helvetica Bold" font-size="8.00" fill="#7b7b7b">TextField</text>
</g>
<!-- workflows_models_AbstractOption&#45;&gt;workflows_models_AbstractInput -->
<g id="edge26" class="edge"><title>workflows_models_AbstractOption&#45;&gt;workflows_models_AbstractInput</title>
<path fill="none" stroke="black" d="M769.358,-640.432C772.491,-622.471 776.649,-598.63 780.666,-575.6"/>
<text text-anchor="middle" x="821.701" y="-597.1" font-family="Helvetica,sans-Serif" font-size="8.00">abstract_input (options)</text>
</g>
<!-- workflows_models_AbstractOutput -->
<g id="node7" class="node"><title>workflows_models_AbstractOutput</title>
<polygon fill="palegoldenrod" stroke="palegoldenrod" points="375.201,-452.5 375.201,-541.5 511.201,-541.5 511.201,-452.5 375.201,-452.5"/>
<polygon fill="#698b22" stroke="#698b22" points="375.201,-524 375.201,-541 511.201,-541 511.201,-524 375.201,-524"/>
<text text-anchor="start" x="411.701" y="-531.1" font-family="Helvetica Bold" font-size="8.00" fill="white">AbstractOutput</text>
<text text-anchor="start" x="377.201" y="-516.6" font-family="Helvetica Bold" font-size="8.00" fill="#7b7b7b">id</text>
<text text-anchor="start" x="430.201" y="-516.6" font-family="Helvetica Bold" font-size="8.00" fill="#7b7b7b">AutoField</text>
<text text-anchor="start" x="377.201" y="-504.6" font-family="Helvetica Bold" font-size="8.00">name</text>
<text text-anchor="start" x="430.201" y="-504.6" font-family="Helvetica Bold" font-size="8.00">CharField</text>
<text text-anchor="start" x="377.201" y="-492.6" font-family="Helvetica Bold" font-size="8.00">short_name</text>
<text text-anchor="start" x="430.201" y="-492.6" font-family="Helvetica Bold" font-size="8.00">CharField</text>
<text text-anchor="start" x="377.201" y="-480.6" font-family="Helvetica Bold" font-size="8.00" fill="#7b7b7b">description</text>
<text text-anchor="start" x="430.201" y="-480.6" font-family="Helvetica Bold" font-size="8.00" fill="#7b7b7b">TextField</text>
<text text-anchor="start" x="377.201" y="-468.6" font-family="Helvetica Bold" font-size="8.00">variable</text>
<text text-anchor="start" x="430.201" y="-468.6" font-family="Helvetica Bold" font-size="8.00">CharField</text>
<text text-anchor="start" x="377.201" y="-456.6" font-family="Helvetica Bold" font-size="8.00">order</text>
<text text-anchor="start" x="430.201" y="-456.6" font-family="Helvetica Bold" font-size="8.00">PositiveIntegerField</text>
</g>
<!-- workflows_models_AbstractOutput&#45;&gt;workflows_models_AbstractWidget -->
<g id="edge28" class="edge"><title>workflows_models_AbstractOutput&#45;&gt;workflows_models_AbstractWidget</title>
<path fill="none" stroke="black" d="M494.566,-448.2C505.583,-438.136 517.215,-427.648 528.201,-418 557.572,-392.207 590.367,-364.424 619.195,-340.333"/>
<text text-anchor="middle" x="589.701" y="-393.1" font-family="Helvetica,sans-Serif" font-size="8.00">widget (outputs)</text>
</g>
<!-- workflows_models_Widget&#45;&gt;workflows_models_Workflow -->
<g id="edge30" class="edge"><title>workflows_models_Widget&#45;&gt;workflows_models_Workflow</title>
<path fill="none" stroke="black" d="M595.683,-569.755C596.102,-582.416 599.543,-594.548 608.201,-604 639.091,-637.721 770.054,-606.845 813.201,-622 821.989,-625.087 830.743,-629.494 838.965,-634.401"/>
<text text-anchor="middle" x="642.701" y="-597.1" font-family="Helvetica,sans-Serif" font-size="8.00">workflow (widgets)</text>
</g>
<!-- workflows_models_Widget&#45;&gt;workflows_models_AbstractWidget -->
<g id="edge32" class="edge"><title>workflows_models_Widget&#45;&gt;workflows_models_AbstractWidget</title>
<path fill="none" stroke="black" d="M632.172,-424.454C635.48,-412.825 639.184,-400.995 643.201,-390 645.418,-383.932 647.841,-377.749 650.394,-371.557"/>
<text text-anchor="middle" x="694.201" y="-393.1" font-family="Helvetica,sans-Serif" font-size="8.00">abstract_widget (instances)</text>
</g>
<!-- workflows_models_Input&#45;&gt;workflows_models_Widget -->
<g id="edge34" class="edge"><title>workflows_models_Input&#45;&gt;workflows_models_Widget</title>
<path fill="none" stroke="black" d="M145.633,-830.606C72.4396,-819.684 -28.3807,-794.117 8.20091,-738 140.393,-535.215 310.656,-682.164 528.201,-576 532.121,-574.087 535.995,-571.946 539.805,-569.627"/>
<text text-anchor="middle" x="230.201" y="-669.1" font-family="Helvetica,sans-Serif" font-size="8.00">widget (inputs)</text>
</g>
<!-- workflows_models_Input&#45;&gt;workflows_models_Output -->
<g id="edge36" class="edge"><title>workflows_models_Input&#45;&gt;workflows_models_Output</title>
<path fill="none" stroke="black" d="M145.729,-828.068C74.0184,-814.831 -22.9065,-787.159 18.2009,-738 57.8601,-690.572 242.633,-677.176 333.906,-673.431"/>
<text text-anchor="middle" x="72.2009" y="-741.1" font-family="Helvetica,sans-Serif" font-size="8.00">inner_output (outer_input_rel)</text>
</g>
<!-- workflows_models_Input&#45;&gt;workflows_models_Output -->
<g id="edge38" class="edge"><title>workflows_models_Input&#45;&gt;workflows_models_Output</title>
<path fill="none" stroke="black" d="M145.949,-771.707C141.25,-760.266 141.128,-748.64 149.201,-738 171.477,-708.64 271.69,-688.791 334.149,-679.027"/>
<text text-anchor="middle" x="203.201" y="-741.1" font-family="Helvetica,sans-Serif" font-size="8.00">outer_output (inner_input_rel)</text>
</g>
<!-- workflows_models_Option -->
<g id="node10" class="node"><title>workflows_models_Option</title>
<polygon fill="palegoldenrod" stroke="palegoldenrod" points="185.201,-962.5 185.201,-1015.5 243.201,-1015.5 243.201,-962.5 185.201,-962.5"/>
<polygon fill="#698b22" stroke="#698b22" points="185.201,-998 185.201,-1015 243.201,-1015 243.201,-998 185.201,-998"/>
<text text-anchor="start" x="203.201" y="-1005.1" font-family="Helvetica Bold" font-size="8.00" fill="white">Option</text>
<text text-anchor="start" x="187.201" y="-990.6" font-family="Helvetica Bold" font-size="8.00" fill="#7b7b7b">id</text>
<text text-anchor="start" x="210.201" y="-990.6" font-family="Helvetica Bold" font-size="8.00" fill="#7b7b7b">AutoField</text>
<text text-anchor="start" x="187.201" y="-978.6" font-family="Helvetica Bold" font-size="8.00">name</text>
<text text-anchor="start" x="210.201" y="-978.6" font-family="Helvetica Bold" font-size="8.00">CharField</text>
<text text-anchor="start" x="187.201" y="-966.6" font-family="Helvetica Bold" font-size="8.00" fill="#7b7b7b">value</text>
<text text-anchor="start" x="210.201" y="-966.6" font-family="Helvetica Bold" font-size="8.00" fill="#7b7b7b">TextField</text>
</g>
<!-- workflows_models_Option&#45;&gt;workflows_models_Input -->
<g id="edge40" class="edge"><title>workflows_models_Option&#45;&gt;workflows_models_Input</title>
<path fill="none" stroke="black" d="M214.201,-958.406C214.201,-944.909 214.201,-928.284 214.201,-911.805"/>
<text text-anchor="middle" x="240.201" y="-933.1" font-family="Helvetica,sans-Serif" font-size="8.00">input (options)</text>
</g>
<!-- workflows_models_Output&#45;&gt;workflows_models_Widget -->
<g id="edge42" class="edge"><title>workflows_models_Output&#45;&gt;workflows_models_Widget</title>
<path fill="none" stroke="black" d="M436.434,-638.937C464.271,-621.417 498.894,-598.568 528.201,-576 531.415,-573.525 534.659,-570.96 537.907,-568.335"/>
<text text-anchor="middle" x="531.701" y="-597.1" font-family="Helvetica,sans-Serif" font-size="8.00">widget (outputs)</text>
</g>
<!-- workflows_models_Output&#45;&gt;workflows_models_Input -->
<g id="edge44" class="edge"><title>workflows_models_Output&#45;&gt;workflows_models_Input</title>
<path fill="none" stroke="black" d="M333.97,-698.245C315.76,-709.047 295.902,-722.644 280.201,-738 271.501,-746.509 263.331,-756.35 255.903,-766.472"/>
<text text-anchor="middle" x="334.201" y="-741.1" font-family="Helvetica,sans-Serif" font-size="8.00">inner_input (outer_output_rel)</text>
</g>
<!-- workflows_models_Output&#45;&gt;workflows_models_Input -->
<g id="edge46" class="edge"><title>workflows_models_Output&#45;&gt;workflows_models_Input</title>
<path fill="none" stroke="black" d="M395.301,-719.566C395.224,-729.514 393.35,-739.54 388.201,-748 365.215,-785.768 320.704,-808.387 282.457,-821.502"/>
<text text-anchor="middle" x="447.201" y="-741.1" font-family="Helvetica,sans-Serif" font-size="8.00">outer_input (inner_output_rel)</text>
</g>
<!-- workflows_models_UserProfile -->
<g id="node12" class="node"><title>workflows_models_UserProfile</title>
<polygon fill="palegoldenrod" stroke="palegoldenrod" points="497.701,-824.5 497.701,-853.5 568.701,-853.5 568.701,-824.5 497.701,-824.5"/>
<polygon fill="#698b22" stroke="#698b22" points="498.201,-836 498.201,-853 569.201,-853 569.201,-836 498.201,-836"/>
<text text-anchor="start" x="511.701" y="-843.1" font-family="Helvetica Bold" font-size="8.00" fill="white">UserProfile</text>
<text text-anchor="start" x="500.201" y="-828.6" font-family="Helvetica Bold" font-size="8.00" fill="#7b7b7b">id</text>
<text text-anchor="start" x="527.201" y="-828.6" font-family="Helvetica Bold" font-size="8.00" fill="#7b7b7b">AutoField</text>
</g>
<!-- workflows_models_UserProfile&#45;&gt;workflows_models_Workflow -->
<g id="edge50" class="edge"><title>workflows_models_UserProfile&#45;&gt;workflows_models_Workflow</title>
<path fill="none" stroke="black" d="M542.678,-820.238C552.539,-803.55 569.56,-779.223 591.201,-766 677.183,-713.462 720.242,-758.882 813.201,-720 821.239,-716.638 829.331,-712.335 837.04,-707.691"/>
<text text-anchor="middle" x="732.201" y="-741.1" font-family="Helvetica,sans-Serif" font-size="8.00">active_workflow (users)</text>
</g>
<!-- workflows_models_UserProfile&#45;&gt;django_contrib_auth_models_User -->
<g id="edge48" class="edge"><title>workflows_models_UserProfile&#45;&gt;django_contrib_auth_models_User</title>
<path fill="none" stroke="black" d="M529.402,-820.302C524.788,-800.034 516.234,-766.014 505.201,-738 483.931,-683.994 486.058,-663.228 445.201,-622 414.413,-590.933 382.71,-612.227 358.201,-576 313.125,-509.371 339.201,-476.444 339.201,-396 339.201,-396 339.201,-396 339.201,-106 339.201,-31.1473 615.051,-20.6558 703.947,-19.2182"/>
<text text-anchor="middle" x="371.201" y="-393.1" font-family="Helvetica,sans-Serif" font-size="8.00">user (userprofile)</text>
</g>
</g>
</svg>
